# xmcd CD database file
#
# Track frame offsets:
#	150
#	28709
#	54732
#	76564
#	98896
#	125925
#	156983
#	186532
#	211680
#	240575
#	273265
#	289618
#
# Disc length: 4355 seconds
#
# Revision: 0
# Processed by: cddbd v1.5.2PL0 Copyright (c) Steve Scherf et al.
# Submitted via: CDex 1.70beta2
#
DISCID=a711010c
DTITLE=WildCards - Wild Men's Greengrass Blues II
DYEAR=2011
DGENRE=Blues
TTITLE0=Have you ever seen the rain
TTITLE1=Dead Flowers
TTITLE2=Five foot two eyes of blue
TTITLE3=Miss Froggie
TTITLE4=Es het einisch eini gseit
TTITLE5=Fourth of July
TTITLE6=When Rita leaves
TTITLE7=Jambalaya
TTITLE8=Sugar Mama
TTITLE9=Zydecos shoes
TTITLE10=I love the way you walk
TTITLE11=Stets i Truure
EXTD=YEAR: 2011
EXTT0=
EXTT1=
EXTT2=
EXTT3=
EXTT4=
EXTT5=
EXTT6=
EXTT7=
EXTT8=
EXTT9=
EXTT10=
EXTT11=
PLAYORDER=
